<svg xmlns="http://www.w3.org/2000/svg" xmlns:xlink="http://www.w3.org/1999/xlink" width="1920" zoomAndPan="magnify" viewBox="0 0 1440 809.999993" height="1080" preserveAspectRatio="xMidYMid meet" version="1.2"><defs><clipPath id="aac05412e3"><path d="M 1048.433594 452.847656 L 1440 452.847656 L 1440 810 L 1048.433594 810 Z M 1048.433594 452.847656 "/></clipPath><clipPath id="67570a8b3e"><path d="M 1636.03125 724.078125 L 1501.988281 954.46875 C 1497.082031 962.898438 1488.066406 968.082031 1478.316406 968.082031 L 1210.042969 968.082031 C 1200.292969 968.082031 1191.277344 962.898438 1186.375 954.46875 L 1052.328125 724.078125 C 1047.433594 715.664062 1047.433594 705.265625 1052.328125 696.851562 L 1186.375 466.460938 C 1191.277344 458.03125 1200.292969 452.847656 1210.042969 452.847656 L 1478.316406 452.847656 C 1488.066406 452.847656 1497.082031 458.03125 1501.988281 466.460938 L 1636.03125 696.851562 C 1640.929688 705.265625 1640.929688 715.664062 1636.03125 724.078125 Z M 1636.03125 724.078125 "/></clipPath><clipPath id="64c7206933"><path d="M 1120 504.449219 L 1440 504.449219 L 1440 810 L 1120 810 Z M 1120 504.449219 "/></clipPath><clipPath id="5bcd7e3447"><path d="M 1565.671875 708.40625 L 1462.84375 885.140625 C 1459.574219 890.757812 1453.566406 894.214844 1447.0625 894.214844 L 1241.289062 894.214844 C 1234.789062 894.214844 1228.78125 890.757812 1225.511719 885.140625 L 1122.683594 708.40625 C 1119.421875 702.796875 1119.421875 695.867188 1122.683594 690.257812 L 1225.511719 513.523438 C 1228.78125 507.90625 1234.789062 504.449219 1241.289062 504.449219 L 1447.0625 504.449219 C 1453.566406 504.449219 1459.574219 507.90625 1462.84375 513.523438 L 1565.671875 690.257812 C 1568.933594 695.867188 1568.933594 702.796875 1565.671875 708.40625 Z M 1565.671875 708.40625 "/></clipPath><clipPath id="8b34be633d"><path d="M 369 624.089844 L 960.609375 624.089844 L 960.609375 810 L 369 810 Z M 369 624.089844 "/></clipPath><clipPath id="015823d15c"><path d="M 956.496094 895.320312 L 822.449219 1125.710938 C 817.546875 1134.140625 808.53125 1139.324219 798.78125 1139.324219 L 530.507812 1139.324219 C 520.757812 1139.324219 511.742188 1134.140625 506.835938 1125.710938 L 372.792969 895.320312 C 367.894531 886.90625 367.894531 876.511719 372.792969 868.09375 L 506.835938 637.703125 C 511.742188 629.277344 520.757812 624.089844 530.507812 624.089844 L 798.78125 624.089844 C 808.53125 624.089844 817.546875 629.277344 822.449219 637.703125 L 956.496094 868.09375 C 961.390625 876.511719 961.390625 886.90625 956.496094 895.320312 Z M 956.496094 895.320312 "/></clipPath><clipPath id="97b6dff062"><path d="M 0 424.898438 L 660.566406 424.898438 L 660.566406 729 L 0 729 Z M 0 424.898438 "/></clipPath><clipPath id="15959b72c5"><path d="M 656.722656 590.5625 L 584.097656 715.386719 C 579.195312 723.816406 570.179688 729 560.429688 729 L -9.722656 729 C -19.476562 729 -28.492188 723.816406 -33.394531 715.386719 L -106.019531 590.5625 C -110.914062 582.148438 -110.914062 571.75 -106.019531 563.335938 L -33.394531 438.511719 C -28.492188 430.085938 -19.476562 424.898438 -9.722656 424.898438 L 560.429688 424.898438 C 570.179688 424.898438 579.195312 430.085938 584.097656 438.511719 L 656.722656 563.335938 C 661.621094 571.75 661.621094 582.148438 656.722656 590.5625 Z M 656.722656 590.5625 "/></clipPath><clipPath id="9fa6b04b5a"><path d="M 782.375 714.710938 L 999.753906 714.710938 L 999.753906 810 L 782.375 810 Z M 782.375 714.710938 "/></clipPath><clipPath id="ae9d0f5aa0"><path d="M 996.625 819.074219 L 951.742188 896.214844 C 948.476562 901.832031 942.464844 905.289062 935.964844 905.289062 L 846.082031 905.289062 C 839.582031 905.289062 833.570312 901.832031 830.300781 896.214844 L 785.421875 819.074219 C 782.15625 813.464844 782.15625 806.535156 785.421875 800.925781 L 830.300781 723.785156 C 833.570312 718.167969 839.582031 714.710938 846.082031 714.710938 L 935.964844 714.710938 C 942.464844 714.710938 948.476562 718.167969 951.742188 723.785156 L 996.625 800.925781 C 999.886719 806.535156 999.886719 813.464844 996.625 819.074219 Z M 996.625 819.074219 "/></clipPath><clipPath id="81adbcac2a"><path d="M 806.460938 735.835938 L 975.644531 735.835938 L 975.644531 810 L 806.460938 810 Z M 806.460938 735.835938 "/></clipPath><clipPath id="b5b093dff3"><path d="M 973.550781 816.484375 L 937.945312 877.679688 C 935.609375 881.695312 931.316406 884.164062 926.671875 884.164062 L 855.375 884.164062 C 850.730469 884.164062 846.4375 881.695312 844.101562 877.679688 L 808.496094 816.484375 C 806.164062 812.476562 806.164062 807.523438 808.496094 803.515625 L 844.101562 742.320312 C 846.4375 738.304688 850.730469 735.835938 855.375 735.835938 L 926.671875 735.835938 C 931.316406 735.835938 935.609375 738.304688 937.945312 742.320312 L 973.550781 803.515625 C 975.878906 807.523438 975.878906 812.476562 973.550781 816.484375 Z M 973.550781 816.484375 "/></clipPath><clipPath id="9097bc7c63"><path d="M 806 735.839844 L 976 735.839844 L 976 810 L 806 810 Z M 806 735.839844 "/></clipPath><clipPath id="d6c2952e10"><path d="M 973.453125 816.4375 L 937.867188 877.601562 C 935.535156 881.613281 931.246094 884.082031 926.605469 884.082031 L 855.34375 884.082031 C 850.703125 884.082031 846.414062 881.613281 844.078125 877.601562 L 808.492188 816.4375 C 806.164062 812.433594 806.164062 807.484375 808.492188 803.480469 L 844.078125 742.316406 C 846.414062 738.304688 850.703125 735.839844 855.34375 735.839844 L 926.605469 735.839844 C 931.246094 735.839844 935.535156 738.304688 937.867188 742.316406 L 973.453125 803.480469 C 975.785156 807.484375 975.785156 812.433594 973.453125 816.4375 Z M 973.453125 816.4375 "/></clipPath><clipPath id="11ad0505a9"><path d="M 586 0 L 851.824219 0 L 851.824219 115.777344 L 586 115.777344 Z M 586 0 "/></clipPath><clipPath id="54ec686956"><path d="M 849.007812 7.777344 L 790.699219 108 C 787.898438 112.816406 782.746094 115.777344 777.171875 115.777344 L 660.449219 115.777344 C 654.875 115.777344 649.726562 112.816406 646.921875 108 L 588.613281 7.777344 C 585.816406 2.96875 585.816406 -2.96875 588.613281 -7.777344 L 646.921875 -108 C 649.726562 -112.816406 654.875 -115.777344 660.449219 -115.777344 L 777.171875 -115.777344 C 782.746094 -115.777344 787.898438 -112.816406 790.699219 -108 L 849.007812 -7.777344 C 851.804688 -2.96875 851.804688 2.96875 849.007812 7.777344 Z M 849.007812 7.777344 "/></clipPath><clipPath id="460c56b593"><path d="M 615 0 L 822 0 L 822 89.890625 L 615 89.890625 Z M 615 0 "/></clipPath><clipPath id="45ee8f6343"><path d="M 820.398438 5.070312 L 774.0625 84.710938 C 772.199219 87.917969 768.769531 89.890625 765.058594 89.890625 L 672.316406 89.890625 C 668.605469 89.890625 665.175781 87.917969 663.308594 84.710938 L 616.972656 5.070312 C 615.109375 1.867188 615.109375 -2.085938 616.972656 -5.289062 L 663.308594 -84.929688 C 665.175781 -88.136719 668.605469 -90.109375 672.316406 -90.109375 L 765.058594 -90.109375 C 768.769531 -90.109375 772.199219 -88.136719 774.0625 -84.929688 L 820.398438 -5.289062 C 822.261719 -2.085938 822.261719 1.867188 820.398438 5.070312 Z M 820.398438 5.070312 "/></clipPath></defs><g id="26cc590c3e"><rect x="0" width="1440" y="0" height="809.999993" style="fill:#ffffff;fill-opacity:1;stroke:none;"/><rect x="0" width="1440" y="0" height="809.999993" style="fill:#ffffff;fill-opacity:1;stroke:none;"/><g clip-rule="nonzero" clip-path="url(#aac05412e3)"><g clip-rule="nonzero" clip-path="url(#67570a8b3e)"><path style=" stroke:none;fill-rule:nonzero;fill:#f5af19;fill-opacity:1;" d="M 1044.40625 452.847656 L 1644.171875 452.847656 L 1644.171875 968.082031 L 1044.40625 968.082031 Z M 1044.40625 452.847656 "/></g></g><g clip-rule="nonzero" clip-path="url(#64c7206933)"><g clip-rule="nonzero" clip-path="url(#5bcd7e3447)"><path style="fill:none;stroke-width:24;stroke-linecap:butt;stroke-linejoin:miter;stroke:#ffffff;stroke-opacity:1;stroke-miterlimit:4;" d="M 597.689477 271.941912 L 460.585303 507.587757 C 456.225928 515.07734 448.215511 519.686716 439.543635 519.686716 L 165.179038 519.686716 C 156.512371 519.686716 148.501954 515.07734 144.142579 507.587757 L 7.038405 271.941912 C 2.689447 264.462744 2.689447 255.223161 7.038405 247.743994 L 144.142579 12.098148 C 148.501954 4.608565 156.512371 -0.000810496 165.179038 -0.000810496 L 439.543635 -0.000810496 C 448.215511 -0.000810496 456.225928 4.608565 460.585303 12.098148 L 597.689477 247.743994 C 602.038435 255.223161 602.038435 264.462744 597.689477 271.941912 Z M 597.689477 271.941912 " transform="matrix(0.75,0,0,0.75,1117.40479,504.449827)"/></g></g><g clip-rule="nonzero" clip-path="url(#8b34be633d)"><g clip-rule="nonzero" clip-path="url(#015823d15c)"><path style=" stroke:none;fill-rule:nonzero;fill:#f5af19;fill-opacity:1;" d="M 364.871094 624.089844 L 964.636719 624.089844 L 964.636719 1139.324219 L 364.871094 1139.324219 Z M 364.871094 624.089844 "/></g></g><g clip-rule="nonzero" clip-path="url(#97b6dff062)"><g clip-rule="nonzero" clip-path="url(#15959b72c5)"><path style=" stroke:none;fill-rule:nonzero;fill:#ffffff;fill-opacity:1;" d="M -113.941406 424.898438 L 664.128906 424.898438 L 664.128906 729 L -113.941406 729 Z M -113.941406 424.898438 "/></g></g><g clip-rule="nonzero" clip-path="url(#9fa6b04b5a)"><g clip-rule="nonzero" clip-path="url(#ae9d0f5aa0)"><path style=" stroke:none;fill-rule:nonzero;fill:#ffffff;fill-opacity:1;" d="M 780.140625 714.710938 L 1001.984375 714.710938 L 1001.984375 905.289062 L 780.140625 905.289062 Z M 780.140625 714.710938 "/></g></g><g clip-rule="nonzero" clip-path="url(#81adbcac2a)"><g clip-rule="nonzero" clip-path="url(#b5b093dff3)"><path style=" stroke:none;fill-rule:nonzero;fill:#f5af19;fill-opacity:1;" d="M 804.722656 735.835938 L 977.382812 735.835938 L 977.382812 884.164062 L 804.722656 884.164062 Z M 804.722656 735.835938 "/></g></g><g clip-rule="nonzero" clip-path="url(#9097bc7c63)"><g clip-rule="nonzero" clip-path="url(#d6c2952e10)"><path style="fill:none;stroke-width:24;stroke-linecap:butt;stroke-linejoin:miter;stroke:#ff8c38;stroke-opacity:1;stroke-miterlimit:4;" d="M 225.093734 107.524258 L 177.62003 189.120663 C 174.508965 194.472529 168.787107 197.765984 162.596244 197.765984 L 67.52898 197.765984 C 61.338117 197.765984 55.616259 194.472529 52.499983 189.120663 L 5.026279 107.524258 C 1.920425 102.182815 1.920425 95.58027 5.026279 90.238827 L 52.499983 8.642421 C 55.616259 3.290556 61.338117 0.00231161 67.52898 0.00231161 L 162.596244 0.00231161 C 168.787107 0.00231161 174.508965 3.290556 177.62003 8.642421 L 225.093734 90.238827 C 228.204798 95.58027 228.204798 102.182815 225.093734 107.524258 Z M 225.093734 107.524258 " transform="matrix(0.749593,0,0,0.749593,804.724526,735.838111)"/></g></g><g clip-rule="nonzero" clip-path="url(#11ad0505a9)"><g clip-rule="nonzero" clip-path="url(#54ec686956)"><path style=" stroke:none;fill-rule:nonzero;fill:#f49f36;fill-opacity:1;" d="M 584.085938 -115.777344 L 853.632812 -115.777344 L 853.632812 115.777344 L 584.085938 115.777344 Z M 584.085938 -115.777344 "/></g></g><g clip-rule="nonzero" clip-path="url(#460c56b593)"><g clip-rule="nonzero" clip-path="url(#45ee8f6343)"><path style="fill:none;stroke-width:20;stroke-linecap:butt;stroke-linejoin:miter;stroke:#ffffff;stroke-opacity:1;stroke-miterlimit:4;" d="M 275.574773 127.055406 L 213.721121 233.367349 C 211.233834 237.648402 206.655558 240.281692 201.701843 240.281692 L 77.900678 240.281692 C 72.946963 240.281692 68.368687 237.648402 65.876186 233.367349 L 4.022534 127.055406 C 1.535247 122.779567 1.535247 117.502557 4.022534 113.226719 L 65.876186 6.914776 C 68.368687 2.633723 72.946963 0.000432061 77.900678 0.000432061 L 201.701843 0.000432061 C 206.655558 0.000432061 211.233834 2.633723 213.721121 6.914776 L 275.574773 113.226719 C 278.06206 117.502557 278.06206 122.779567 275.574773 127.055406 Z M 275.574773 127.055406 " transform="matrix(0.749122,0,0,0.749122,613.959287,-90.109699)"/></g></g></g></svg>