<svg xmlns="http://www.w3.org/2000/svg" xmlns:xlink="http://www.w3.org/1999/xlink" width="1920" zoomAndPan="magnify" viewBox="0 0 1440 809.999993" height="1080" preserveAspectRatio="xMidYMid meet" version="1.2"><defs><clipPath id="d01b46515d"><path d="M 386.003906 0 L 1440 0 L 1440 212 L 386.003906 212 Z M 386.003906 0 "/></clipPath><clipPath id="4388b8c826"><path d="M 386.003906 0 L 1440 0 L 1440 188 L 386.003906 188 Z M 386.003906 0 "/></clipPath><clipPath id="5a932b020c"><path d="M 0 709 L 613.515625 709 L 613.515625 810 L 0 810 Z M 0 709 "/></clipPath><clipPath id="8622562ef6"><path d="M 0 722 L 613.515625 722 L 613.515625 810 L 0 810 Z M 0 722 "/></clipPath><filter x="0%" y="0%" width="100%" filterUnits="objectBoundingBox" id="a191d287d0" height="100%"><feColorMatrix values="0 0 0 0 1 0 0 0 0 1 0 0 0 0 1 0 0 0 1 0" type="matrix" in="SourceGraphic"/></filter><clipPath id="234857a6b2"><path d="M 0 0 L 143.761719 0 L 143.761719 140.953125 L 0 140.953125 Z M 0 0 "/></clipPath><clipPath id="a8d82e3063"><path d="M 22.261719 -102.046875 C -44.839844 -102.046875 -99.238281 -47.652344 -99.238281 19.453125 C -99.238281 86.554688 -44.839844 140.953125 22.261719 140.953125 C 89.363281 140.953125 143.761719 86.554688 143.761719 19.453125 C 143.761719 -47.652344 89.363281 -102.046875 22.261719 -102.046875 Z M 22.261719 -102.046875 "/></clipPath><clipPath id="38458b41df"><rect x="0" width="327" y="0" height="324"/></clipPath><clipPath id="de2a6b28df"><path d="M 180.996094 180.917969 L 492.996094 180.917969 L 492.996094 303 L 180.996094 303 Z M 180.996094 180.917969 "/></clipPath><clipPath id="2256882aa3"><path d="M 336.996094 180.917969 C 250.839844 180.917969 180.996094 250.761719 180.996094 336.917969 C 180.996094 423.074219 250.839844 492.917969 336.996094 492.917969 C 423.152344 492.917969 492.996094 423.074219 492.996094 336.917969 C 492.996094 250.761719 423.152344 180.917969 336.996094 180.917969 Z M 336.996094 180.917969 "/></clipPath><clipPath id="396f36560a"><rect x="0" width="674" y="0" height="303"/></clipPath></defs><g id="0bccfd610a"><g clip-rule="nonzero" clip-path="url(#d01b46515d)"><path style=" stroke:none;fill-rule:nonzero;fill:#ff842b;fill-opacity:1;" d="M 1492.238281 145.71875 C 1132.183594 279.246094 623.148438 198.421875 386.046875 2.898438 L 386.046875 -148.238281 L 1492.238281 -148.238281 Z M 1492.238281 145.71875 "/></g><g clip-rule="nonzero" clip-path="url(#4388b8c826)"><path style=" stroke:none;fill-rule:nonzero;fill:#ff6b00;fill-opacity:1;" d="M 1493.71875 187.46875 C 1345.710938 188.777344 1203.179688 17.363281 1032.761719 12.550781 C 937.136719 9.84375 846.632812 60.425781 752.085938 77.417969 C 623.652344 100.507812 487.59375 58.0625 386.046875 -36.765625 L 386.046875 -143.488281 L 1490.515625 -148.230469 Z M 1493.71875 187.46875 "/></g><g clip-rule="nonzero" clip-path="url(#5a932b020c)"><path style=" stroke:none;fill-rule:nonzero;fill:#ff842b;fill-opacity:1;" d="M 0.757812 745.535156 C 200.195312 671.507812 482.15625 716.316406 613.484375 824.710938 L 613.484375 908.5 L 0.757812 908.5 Z M 0.757812 745.535156 "/></g><g clip-rule="nonzero" clip-path="url(#8622562ef6)"><path style=" stroke:none;fill-rule:nonzero;fill:#ff6b00;fill-opacity:1;" d="M -0.0625 722.390625 C 81.921875 721.664062 160.871094 816.695312 255.265625 819.363281 C 308.234375 820.863281 358.363281 792.820312 410.734375 783.398438 C 481.875 770.597656 557.238281 794.128906 613.484375 846.703125 L 613.484375 905.867188 L 1.710938 908.496094 Z M -0.0625 722.390625 "/></g><path style=" stroke:none;fill-rule:nonzero;fill:#000e24;fill-opacity:1;" d="M 1309.976562 144.183594 C 1310.0625 144.546875 1310.078125 144.914062 1310.015625 145.285156 C 1309.957031 145.65625 1309.828125 146 1309.632812 146.316406 C 1309.433594 146.636719 1309.183594 146.90625 1308.878906 147.125 C 1308.578125 147.34375 1308.242188 147.496094 1307.878906 147.582031 C 1307.511719 147.667969 1307.148438 147.679688 1306.777344 147.621094 C 1306.40625 147.558594 1306.0625 147.429688 1305.746094 147.234375 C 1305.425781 147.039062 1305.15625 146.789062 1304.9375 146.484375 C 1304.71875 146.179688 1304.566406 145.847656 1304.480469 145.480469 C 1304.394531 145.117188 1304.382812 144.75 1304.441406 144.378906 C 1304.5 144.011719 1304.628906 143.667969 1304.828125 143.347656 C 1305.023438 143.03125 1305.273438 142.761719 1305.578125 142.542969 C 1305.882812 142.324219 1306.214844 142.171875 1306.582031 142.085938 C 1306.945312 142 1307.3125 141.984375 1307.679688 142.046875 C 1308.050781 142.105469 1308.394531 142.234375 1308.714844 142.429688 C 1309.03125 142.628906 1309.300781 142.878906 1309.519531 143.179688 C 1309.738281 143.484375 1309.890625 143.820312 1309.976562 144.183594 Z M 1309.976562 144.183594 "/><path style=" stroke:none;fill-rule:nonzero;fill:#000e24;fill-opacity:1;" d="M 1309.976562 161.390625 C 1310.0625 161.753906 1310.078125 162.121094 1310.015625 162.492188 C 1309.957031 162.859375 1309.828125 163.203125 1309.632812 163.523438 C 1309.433594 163.84375 1309.183594 164.109375 1308.882812 164.328125 C 1308.578125 164.546875 1308.242188 164.703125 1307.878906 164.789062 C 1307.515625 164.875 1307.148438 164.886719 1306.777344 164.828125 C 1306.40625 164.765625 1306.0625 164.636719 1305.746094 164.441406 C 1305.425781 164.246094 1305.15625 163.992188 1304.9375 163.691406 C 1304.71875 163.386719 1304.566406 163.050781 1304.480469 162.6875 C 1304.394531 162.324219 1304.382812 161.957031 1304.441406 161.585938 C 1304.503906 161.21875 1304.632812 160.875 1304.828125 160.554688 C 1305.023438 160.234375 1305.273438 159.96875 1305.578125 159.75 C 1305.882812 159.53125 1306.214844 159.378906 1306.582031 159.292969 C 1306.945312 159.203125 1307.3125 159.191406 1307.683594 159.25 C 1308.050781 159.3125 1308.394531 159.441406 1308.714844 159.636719 C 1309.03125 159.832031 1309.300781 160.085938 1309.519531 160.386719 C 1309.738281 160.691406 1309.890625 161.027344 1309.976562 161.390625 Z M 1309.976562 161.390625 "/><path style=" stroke:none;fill-rule:nonzero;fill:#000e24;fill-opacity:1;" d="M 1309.222656 177.25 C 1309.488281 177.515625 1309.691406 177.820312 1309.835938 178.167969 C 1309.980469 178.515625 1310.050781 178.875 1310.050781 179.25 C 1310.050781 179.621094 1309.980469 179.984375 1309.835938 180.328125 C 1309.691406 180.675781 1309.488281 180.980469 1309.222656 181.246094 C 1308.960938 181.511719 1308.652344 181.714844 1308.308594 181.855469 C 1307.960938 182 1307.601562 182.070312 1307.226562 182.070312 C 1306.851562 182.070312 1306.492188 182 1306.148438 181.855469 C 1305.800781 181.714844 1305.496094 181.511719 1305.230469 181.246094 C 1304.964844 180.980469 1304.761719 180.675781 1304.617188 180.328125 C 1304.476562 179.984375 1304.402344 179.621094 1304.402344 179.25 C 1304.402344 178.875 1304.476562 178.515625 1304.617188 178.167969 C 1304.761719 177.820312 1304.964844 177.515625 1305.230469 177.25 C 1305.496094 176.988281 1305.800781 176.78125 1306.148438 176.640625 C 1306.492188 176.496094 1306.851562 176.425781 1307.226562 176.425781 C 1307.601562 176.425781 1307.960938 176.496094 1308.308594 176.640625 C 1308.652344 176.78125 1308.960938 176.988281 1309.222656 177.25 Z M 1309.222656 177.25 "/><path style=" stroke:none;fill-rule:nonzero;fill:#000e24;fill-opacity:1;" d="M 1309.222656 194.457031 C 1309.488281 194.722656 1309.691406 195.027344 1309.835938 195.375 C 1309.980469 195.71875 1310.050781 196.082031 1310.050781 196.453125 C 1310.050781 196.828125 1309.980469 197.191406 1309.835938 197.535156 C 1309.691406 197.882812 1309.488281 198.1875 1309.222656 198.453125 C 1308.957031 198.714844 1308.652344 198.921875 1308.308594 199.0625 C 1307.960938 199.207031 1307.601562 199.277344 1307.226562 199.277344 C 1306.851562 199.277344 1306.492188 199.207031 1306.144531 199.0625 C 1305.800781 198.921875 1305.496094 198.714844 1305.230469 198.453125 C 1304.964844 198.1875 1304.761719 197.882812 1304.617188 197.535156 C 1304.476562 197.191406 1304.402344 196.828125 1304.402344 196.457031 C 1304.402344 196.082031 1304.476562 195.71875 1304.617188 195.375 C 1304.761719 195.027344 1304.964844 194.722656 1305.230469 194.457031 C 1305.496094 194.195312 1305.800781 193.988281 1306.144531 193.847656 C 1306.492188 193.703125 1306.851562 193.632812 1307.226562 193.632812 C 1307.601562 193.632812 1307.960938 193.703125 1308.308594 193.847656 C 1308.652344 193.988281 1308.957031 194.195312 1309.222656 194.457031 Z M 1309.222656 194.457031 "/><path style=" stroke:none;fill-rule:nonzero;fill:#000e24;fill-opacity:1;" d="M 1327.226562 144.183594 C 1327.3125 144.546875 1327.328125 144.914062 1327.265625 145.285156 C 1327.207031 145.652344 1327.078125 145.996094 1326.882812 146.316406 C 1326.683594 146.636719 1326.433594 146.902344 1326.132812 147.121094 C 1325.828125 147.339844 1325.492188 147.492188 1325.128906 147.578125 C 1324.765625 147.667969 1324.398438 147.679688 1324.027344 147.621094 C 1323.65625 147.558594 1323.3125 147.429688 1322.996094 147.234375 C 1322.675781 147.039062 1322.40625 146.785156 1322.1875 146.484375 C 1321.96875 146.179688 1321.816406 145.84375 1321.730469 145.480469 C 1321.644531 145.117188 1321.632812 144.75 1321.691406 144.378906 C 1321.753906 144.011719 1321.878906 143.667969 1322.078125 143.347656 C 1322.273438 143.027344 1322.523438 142.761719 1322.828125 142.542969 C 1323.132812 142.324219 1323.464844 142.167969 1323.832031 142.082031 C 1324.195312 141.996094 1324.5625 141.984375 1324.933594 142.042969 C 1325.300781 142.105469 1325.644531 142.234375 1325.964844 142.429688 C 1326.28125 142.625 1326.550781 142.878906 1326.769531 143.179688 C 1326.988281 143.484375 1327.140625 143.820312 1327.226562 144.183594 Z M 1327.226562 144.183594 "/><path style=" stroke:none;fill-rule:nonzero;fill:#000e24;fill-opacity:1;" d="M 1327.230469 161.390625 C 1327.316406 161.753906 1327.328125 162.121094 1327.269531 162.492188 C 1327.207031 162.859375 1327.078125 163.203125 1326.882812 163.523438 C 1326.6875 163.839844 1326.433594 164.109375 1326.132812 164.328125 C 1325.828125 164.546875 1325.492188 164.699219 1325.128906 164.785156 C 1324.765625 164.871094 1324.398438 164.886719 1324.027344 164.824219 C 1323.660156 164.765625 1323.316406 164.636719 1322.996094 164.441406 C 1322.675781 164.242188 1322.410156 163.992188 1322.191406 163.691406 C 1321.972656 163.386719 1321.820312 163.050781 1321.730469 162.6875 C 1321.644531 162.324219 1321.632812 161.957031 1321.691406 161.585938 C 1321.753906 161.214844 1321.882812 160.871094 1322.078125 160.554688 C 1322.273438 160.234375 1322.527344 159.964844 1322.828125 159.746094 C 1323.132812 159.527344 1323.46875 159.375 1323.832031 159.289062 C 1324.195312 159.203125 1324.5625 159.191406 1324.933594 159.25 C 1325.300781 159.3125 1325.644531 159.441406 1325.964844 159.636719 C 1326.285156 159.832031 1326.550781 160.082031 1326.769531 160.386719 C 1326.988281 160.691406 1327.140625 161.023438 1327.230469 161.390625 Z M 1327.230469 161.390625 "/><path style=" stroke:none;fill-rule:nonzero;fill:#000e24;fill-opacity:1;" d="M 1326.476562 177.25 C 1326.738281 177.515625 1326.945312 177.820312 1327.085938 178.167969 C 1327.230469 178.515625 1327.300781 178.875 1327.300781 179.25 C 1327.300781 179.621094 1327.230469 179.984375 1327.085938 180.328125 C 1326.945312 180.675781 1326.738281 180.980469 1326.476562 181.246094 C 1326.210938 181.511719 1325.90625 181.714844 1325.558594 181.855469 C 1325.210938 182 1324.851562 182.070312 1324.476562 182.070312 C 1324.105469 182.070312 1323.742188 182 1323.398438 181.855469 C 1323.050781 181.714844 1322.746094 181.511719 1322.480469 181.246094 C 1322.214844 180.980469 1322.011719 180.675781 1321.871094 180.328125 C 1321.726562 179.984375 1321.65625 179.625 1321.65625 179.25 C 1321.65625 178.875 1321.726562 178.515625 1321.871094 178.167969 C 1322.011719 177.820312 1322.214844 177.515625 1322.480469 177.25 C 1322.746094 176.988281 1323.050781 176.78125 1323.398438 176.640625 C 1323.742188 176.496094 1324.105469 176.425781 1324.476562 176.425781 C 1324.851562 176.425781 1325.210938 176.496094 1325.558594 176.640625 C 1325.90625 176.78125 1326.210938 176.988281 1326.476562 177.25 Z M 1326.476562 177.25 "/><path style=" stroke:none;fill-rule:nonzero;fill:#000e24;fill-opacity:1;" d="M 1326.472656 194.457031 C 1326.738281 194.722656 1326.941406 195.027344 1327.085938 195.375 C 1327.230469 195.71875 1327.300781 196.082031 1327.300781 196.457031 C 1327.300781 196.828125 1327.230469 197.191406 1327.085938 197.535156 C 1326.941406 197.882812 1326.738281 198.1875 1326.472656 198.453125 C 1326.210938 198.714844 1325.90625 198.921875 1325.558594 199.0625 C 1325.210938 199.207031 1324.851562 199.277344 1324.476562 199.277344 C 1324.101562 199.277344 1323.742188 199.207031 1323.398438 199.0625 C 1323.050781 198.921875 1322.746094 198.714844 1322.480469 198.453125 C 1322.214844 198.1875 1322.011719 197.882812 1321.867188 197.535156 C 1321.726562 197.191406 1321.652344 196.828125 1321.652344 196.457031 C 1321.652344 196.082031 1321.726562 195.71875 1321.867188 195.375 C 1322.011719 195.027344 1322.214844 194.722656 1322.480469 194.457031 C 1322.746094 194.195312 1323.050781 193.988281 1323.398438 193.847656 C 1323.742188 193.703125 1324.101562 193.632812 1324.476562 193.632812 C 1324.851562 193.632812 1325.210938 193.703125 1325.558594 193.847656 C 1325.902344 193.988281 1326.210938 194.195312 1326.472656 194.457031 Z M 1326.472656 194.457031 "/><path style=" stroke:none;fill-rule:nonzero;fill:#000e24;fill-opacity:1;" d="M 1344.476562 144.183594 C 1344.566406 144.546875 1344.578125 144.914062 1344.519531 145.285156 C 1344.457031 145.652344 1344.328125 145.996094 1344.132812 146.316406 C 1343.9375 146.632812 1343.683594 146.902344 1343.382812 147.121094 C 1343.078125 147.339844 1342.742188 147.492188 1342.378906 147.578125 C 1342.015625 147.664062 1341.648438 147.679688 1341.277344 147.617188 C 1340.910156 147.558594 1340.566406 147.429688 1340.246094 147.234375 C 1339.925781 147.035156 1339.660156 146.785156 1339.441406 146.480469 C 1339.222656 146.179688 1339.066406 145.84375 1338.980469 145.480469 C 1338.894531 145.117188 1338.882812 144.75 1338.941406 144.378906 C 1339.003906 144.007812 1339.132812 143.664062 1339.328125 143.347656 C 1339.523438 143.027344 1339.777344 142.757812 1340.078125 142.539062 C 1340.382812 142.320312 1340.71875 142.167969 1341.082031 142.082031 C 1341.445312 141.996094 1341.8125 141.984375 1342.183594 142.042969 C 1342.550781 142.105469 1342.894531 142.230469 1343.214844 142.429688 C 1343.535156 142.625 1343.800781 142.875 1344.019531 143.179688 C 1344.238281 143.484375 1344.390625 143.816406 1344.476562 144.183594 Z M 1344.476562 144.183594 "/><path style=" stroke:none;fill-rule:nonzero;fill:#000e24;fill-opacity:1;" d="M 1344.480469 161.390625 C 1344.566406 161.753906 1344.578125 162.121094 1344.519531 162.488281 C 1344.457031 162.859375 1344.328125 163.203125 1344.132812 163.523438 C 1343.9375 163.839844 1343.6875 164.109375 1343.382812 164.328125 C 1343.078125 164.546875 1342.746094 164.699219 1342.378906 164.785156 C 1342.015625 164.871094 1341.648438 164.886719 1341.277344 164.824219 C 1340.910156 164.765625 1340.566406 164.636719 1340.246094 164.441406 C 1339.929688 164.242188 1339.660156 163.992188 1339.441406 163.6875 C 1339.222656 163.386719 1339.070312 163.050781 1338.984375 162.6875 C 1338.898438 162.320312 1338.882812 161.957031 1338.945312 161.585938 C 1339.003906 161.214844 1339.132812 160.871094 1339.328125 160.554688 C 1339.527344 160.234375 1339.777344 159.964844 1340.078125 159.746094 C 1340.382812 159.527344 1340.71875 159.375 1341.082031 159.289062 C 1341.445312 159.203125 1341.8125 159.191406 1342.183594 159.25 C 1342.554688 159.308594 1342.898438 159.4375 1343.214844 159.636719 C 1343.535156 159.832031 1343.800781 160.082031 1344.023438 160.386719 C 1344.242188 160.691406 1344.394531 161.023438 1344.480469 161.390625 Z M 1344.480469 161.390625 "/><path style=" stroke:none;fill-rule:nonzero;fill:#000e24;fill-opacity:1;" d="M 1343.726562 177.253906 C 1343.992188 177.515625 1344.195312 177.820312 1344.335938 178.167969 C 1344.480469 178.515625 1344.550781 178.875 1344.550781 179.25 C 1344.550781 179.625 1344.480469 179.984375 1344.335938 180.328125 C 1344.195312 180.675781 1343.992188 180.980469 1343.726562 181.246094 C 1343.460938 181.511719 1343.15625 181.714844 1342.808594 181.859375 C 1342.464844 182 1342.101562 182.074219 1341.730469 182.074219 C 1341.355469 182.074219 1340.996094 182 1340.648438 181.859375 C 1340.300781 181.714844 1339.996094 181.511719 1339.730469 181.246094 C 1339.46875 180.980469 1339.261719 180.675781 1339.121094 180.328125 C 1338.976562 179.984375 1338.90625 179.625 1338.90625 179.25 C 1338.90625 178.875 1338.976562 178.515625 1339.121094 178.167969 C 1339.261719 177.824219 1339.46875 177.515625 1339.730469 177.253906 C 1339.996094 176.988281 1340.300781 176.785156 1340.648438 176.640625 C 1340.996094 176.496094 1341.355469 176.425781 1341.730469 176.425781 C 1342.101562 176.425781 1342.464844 176.496094 1342.808594 176.640625 C 1343.15625 176.785156 1343.460938 176.988281 1343.726562 177.253906 Z M 1343.726562 177.253906 "/><path style=" stroke:none;fill-rule:nonzero;fill:#000e24;fill-opacity:1;" d="M 1343.726562 194.457031 C 1343.988281 194.722656 1344.195312 195.027344 1344.335938 195.375 C 1344.480469 195.722656 1344.550781 196.082031 1344.550781 196.457031 C 1344.550781 196.828125 1344.480469 197.191406 1344.335938 197.535156 C 1344.195312 197.882812 1343.988281 198.1875 1343.726562 198.453125 C 1343.460938 198.714844 1343.15625 198.921875 1342.808594 199.0625 C 1342.464844 199.207031 1342.101562 199.277344 1341.730469 199.277344 C 1341.355469 199.277344 1340.992188 199.207031 1340.648438 199.0625 C 1340.300781 198.921875 1339.996094 198.71875 1339.730469 198.453125 C 1339.46875 198.1875 1339.261719 197.882812 1339.121094 197.535156 C 1338.976562 197.191406 1338.90625 196.828125 1338.90625 196.457031 C 1338.90625 196.082031 1338.976562 195.722656 1339.121094 195.375 C 1339.261719 195.027344 1339.46875 194.722656 1339.730469 194.457031 C 1339.996094 194.195312 1340.300781 193.988281 1340.648438 193.847656 C 1340.992188 193.703125 1341.355469 193.632812 1341.726562 193.632812 C 1342.101562 193.632812 1342.464844 193.703125 1342.808594 193.847656 C 1343.15625 193.988281 1343.460938 194.195312 1343.726562 194.457031 Z M 1343.726562 194.457031 "/><path style=" stroke:none;fill-rule:nonzero;fill:#000e24;fill-opacity:1;" d="M 1361.804688 144.835938 C 1361.804688 145.210938 1361.734375 145.570312 1361.589844 145.914062 C 1361.445312 146.261719 1361.242188 146.566406 1360.976562 146.832031 C 1360.710938 147.097656 1360.40625 147.300781 1360.0625 147.445312 C 1359.714844 147.585938 1359.355469 147.660156 1358.980469 147.660156 C 1358.605469 147.660156 1358.246094 147.585938 1357.898438 147.445312 C 1357.554688 147.300781 1357.25 147.097656 1356.984375 146.832031 C 1356.71875 146.566406 1356.515625 146.261719 1356.371094 145.914062 C 1356.226562 145.570312 1356.15625 145.210938 1356.15625 144.835938 C 1356.15625 144.460938 1356.226562 144.101562 1356.371094 143.753906 C 1356.515625 143.410156 1356.71875 143.101562 1356.984375 142.839844 C 1357.25 142.574219 1357.554688 142.371094 1357.898438 142.226562 C 1358.246094 142.082031 1358.605469 142.011719 1358.980469 142.011719 C 1359.355469 142.011719 1359.714844 142.082031 1360.0625 142.226562 C 1360.40625 142.371094 1360.710938 142.574219 1360.976562 142.839844 C 1361.242188 143.101562 1361.445312 143.410156 1361.589844 143.753906 C 1361.734375 144.101562 1361.804688 144.460938 1361.804688 144.835938 Z M 1361.804688 144.835938 "/><path style=" stroke:none;fill-rule:nonzero;fill:#000e24;fill-opacity:1;" d="M 1361.804688 162.042969 C 1361.804688 162.414062 1361.734375 162.777344 1361.589844 163.121094 C 1361.445312 163.46875 1361.242188 163.773438 1360.976562 164.039062 C 1360.710938 164.304688 1360.40625 164.507812 1360.0625 164.648438 C 1359.714844 164.792969 1359.355469 164.863281 1358.980469 164.863281 C 1358.605469 164.863281 1358.246094 164.792969 1357.898438 164.648438 C 1357.554688 164.507812 1357.25 164.304688 1356.984375 164.039062 C 1356.71875 163.773438 1356.515625 163.46875 1356.371094 163.121094 C 1356.226562 162.777344 1356.15625 162.414062 1356.15625 162.042969 C 1356.15625 161.667969 1356.226562 161.308594 1356.371094 160.960938 C 1356.515625 160.613281 1356.71875 160.308594 1356.984375 160.042969 C 1357.25 159.78125 1357.554688 159.574219 1357.898438 159.433594 C 1358.246094 159.289062 1358.605469 159.21875 1358.980469 159.21875 C 1359.355469 159.21875 1359.714844 159.289062 1360.0625 159.433594 C 1360.40625 159.574219 1360.710938 159.78125 1360.976562 160.042969 C 1361.242188 160.308594 1361.445312 160.613281 1361.589844 160.960938 C 1361.734375 161.308594 1361.804688 161.667969 1361.804688 162.042969 Z M 1361.804688 162.042969 "/><path style=" stroke:none;fill-rule:nonzero;fill:#000e24;fill-opacity:1;" d="M 1361.804688 179.25 C 1361.804688 179.625 1361.734375 179.984375 1361.589844 180.328125 C 1361.445312 180.675781 1361.242188 180.980469 1360.976562 181.246094 C 1360.710938 181.511719 1360.40625 181.714844 1360.0625 181.859375 C 1359.714844 182 1359.355469 182.074219 1358.980469 182.074219 C 1358.605469 182.074219 1358.246094 182 1357.898438 181.859375 C 1357.554688 181.714844 1357.25 181.511719 1356.984375 181.246094 C 1356.71875 180.980469 1356.515625 180.675781 1356.371094 180.328125 C 1356.226562 179.984375 1356.15625 179.625 1356.15625 179.25 C 1356.15625 178.875 1356.226562 178.515625 1356.371094 178.167969 C 1356.515625 177.824219 1356.71875 177.515625 1356.984375 177.253906 C 1357.25 176.988281 1357.554688 176.785156 1357.898438 176.640625 C 1358.246094 176.496094 1358.605469 176.425781 1358.980469 176.425781 C 1359.355469 176.425781 1359.714844 176.496094 1360.0625 176.640625 C 1360.40625 176.785156 1360.710938 176.988281 1360.976562 177.253906 C 1361.242188 177.515625 1361.445312 177.824219 1361.589844 178.167969 C 1361.734375 178.515625 1361.804688 178.875 1361.804688 179.25 Z M 1361.804688 179.25 "/><path style=" stroke:none;fill-rule:nonzero;fill:#000e24;fill-opacity:1;" d="M 1361.804688 196.457031 C 1361.804688 196.828125 1361.734375 197.191406 1361.589844 197.535156 C 1361.445312 197.882812 1361.242188 198.1875 1360.976562 198.453125 C 1360.710938 198.71875 1360.40625 198.921875 1360.0625 199.0625 C 1359.714844 199.207031 1359.355469 199.277344 1358.980469 199.277344 C 1358.605469 199.277344 1358.246094 199.207031 1357.898438 199.0625 C 1357.554688 198.921875 1357.25 198.71875 1356.984375 198.453125 C 1356.71875 198.1875 1356.515625 197.882812 1356.371094 197.535156 C 1356.226562 197.191406 1356.15625 196.828125 1356.15625 196.457031 C 1356.15625 196.082031 1356.226562 195.722656 1356.371094 195.375 C 1356.515625 195.027344 1356.71875 194.722656 1356.984375 194.457031 C 1357.25 194.195312 1357.554688 193.988281 1357.898438 193.847656 C 1358.246094 193.703125 1358.605469 193.632812 1358.980469 193.632812 C 1359.355469 193.632812 1359.714844 193.703125 1360.0625 193.847656 C 1360.40625 193.988281 1360.710938 194.195312 1360.976562 194.457031 C 1361.242188 194.722656 1361.445312 195.027344 1361.589844 195.375 C 1361.734375 195.722656 1361.804688 196.082031 1361.804688 196.457031 Z M 1361.804688 196.457031 "/><path style=" stroke:none;fill-rule:nonzero;fill:#000e24;fill-opacity:1;" d="M 1378.636719 143.355469 C 1378.832031 143.671875 1378.960938 144.015625 1379.019531 144.386719 C 1379.078125 144.757812 1379.066406 145.125 1378.980469 145.488281 C 1378.894531 145.851562 1378.742188 146.1875 1378.523438 146.488281 C 1378.304688 146.792969 1378.035156 147.042969 1377.71875 147.242188 C 1377.398438 147.4375 1377.054688 147.566406 1376.683594 147.625 C 1376.316406 147.6875 1375.949219 147.671875 1375.582031 147.585938 C 1375.21875 147.5 1374.886719 147.347656 1374.582031 147.128906 C 1374.277344 146.910156 1374.027344 146.640625 1373.832031 146.324219 C 1373.632812 146.003906 1373.503906 145.660156 1373.445312 145.289062 C 1373.386719 144.921875 1373.398438 144.554688 1373.484375 144.191406 C 1373.570312 143.824219 1373.722656 143.492188 1373.941406 143.1875 C 1374.160156 142.882812 1374.429688 142.632812 1374.75 142.4375 C 1375.066406 142.238281 1375.410156 142.113281 1375.78125 142.050781 C 1376.148438 141.992188 1376.515625 142.003906 1376.882812 142.089844 C 1377.246094 142.175781 1377.582031 142.328125 1377.882812 142.546875 C 1378.1875 142.765625 1378.4375 143.035156 1378.636719 143.355469 Z M 1378.636719 143.355469 "/><path style=" stroke:none;fill-rule:nonzero;fill:#000e24;fill-opacity:1;" d="M 1378.632812 160.5625 C 1378.832031 160.878906 1378.960938 161.222656 1379.019531 161.59375 C 1379.078125 161.964844 1379.066406 162.332031 1378.980469 162.695312 C 1378.894531 163.058594 1378.742188 163.394531 1378.523438 163.695312 C 1378.304688 164 1378.035156 164.25 1377.714844 164.449219 C 1377.398438 164.644531 1377.054688 164.773438 1376.683594 164.832031 C 1376.316406 164.894531 1375.949219 164.878906 1375.582031 164.792969 C 1375.21875 164.707031 1374.882812 164.554688 1374.582031 164.335938 C 1374.277344 164.117188 1374.027344 163.847656 1373.832031 163.53125 C 1373.632812 163.210938 1373.503906 162.867188 1373.445312 162.496094 C 1373.386719 162.128906 1373.398438 161.761719 1373.484375 161.398438 C 1373.570312 161.03125 1373.722656 160.699219 1373.941406 160.394531 C 1374.160156 160.089844 1374.429688 159.839844 1374.746094 159.644531 C 1375.066406 159.445312 1375.410156 159.320312 1375.78125 159.257812 C 1376.148438 159.199219 1376.515625 159.210938 1376.882812 159.296875 C 1377.246094 159.382812 1377.578125 159.535156 1377.882812 159.753906 C 1378.1875 159.972656 1378.4375 160.242188 1378.632812 160.5625 Z M 1378.632812 160.5625 "/><path style=" stroke:none;fill-rule:nonzero;fill:#000e24;fill-opacity:1;" d="M 1377.714844 176.839844 C 1378.03125 177.035156 1378.300781 177.285156 1378.519531 177.589844 C 1378.738281 177.890625 1378.890625 178.226562 1378.976562 178.589844 C 1379.0625 178.957031 1379.078125 179.324219 1379.015625 179.691406 C 1378.957031 180.0625 1378.828125 180.40625 1378.632812 180.722656 C 1378.433594 181.042969 1378.183594 181.3125 1377.878906 181.53125 C 1377.578125 181.75 1377.242188 181.902344 1376.878906 181.988281 C 1376.515625 182.074219 1376.148438 182.085938 1375.777344 182.027344 C 1375.40625 181.96875 1375.0625 181.839844 1374.746094 181.640625 C 1374.425781 181.445312 1374.15625 181.195312 1373.9375 180.890625 C 1373.71875 180.585938 1373.566406 180.253906 1373.480469 179.890625 C 1373.394531 179.523438 1373.382812 179.15625 1373.441406 178.789062 C 1373.503906 178.417969 1373.628906 178.074219 1373.828125 177.753906 C 1374.023438 177.4375 1374.273438 177.167969 1374.578125 176.949219 C 1374.882812 176.730469 1375.214844 176.578125 1375.582031 176.492188 C 1375.945312 176.40625 1376.3125 176.394531 1376.679688 176.453125 C 1377.050781 176.511719 1377.394531 176.640625 1377.714844 176.839844 Z M 1377.714844 176.839844 "/><path style=" stroke:none;fill-rule:nonzero;fill:#000e24;fill-opacity:1;" d="M 1377.714844 194.042969 C 1378.03125 194.242188 1378.300781 194.492188 1378.519531 194.792969 C 1378.738281 195.097656 1378.890625 195.433594 1378.976562 195.796875 C 1379.0625 196.160156 1379.078125 196.527344 1379.015625 196.898438 C 1378.957031 197.265625 1378.828125 197.613281 1378.632812 197.929688 C 1378.433594 198.25 1378.183594 198.515625 1377.882812 198.738281 C 1377.578125 198.957031 1377.242188 199.109375 1376.878906 199.195312 C 1376.515625 199.28125 1376.148438 199.292969 1375.777344 199.234375 C 1375.40625 199.171875 1375.0625 199.042969 1374.746094 198.847656 C 1374.425781 198.652344 1374.160156 198.402344 1373.9375 198.097656 C 1373.71875 197.792969 1373.566406 197.460938 1373.480469 197.09375 C 1373.394531 196.730469 1373.382812 196.363281 1373.441406 195.992188 C 1373.503906 195.625 1373.632812 195.28125 1373.828125 194.960938 C 1374.023438 194.644531 1374.273438 194.375 1374.578125 194.15625 C 1374.882812 193.9375 1375.214844 193.785156 1375.582031 193.699219 C 1375.945312 193.613281 1376.3125 193.597656 1376.683594 193.660156 C 1377.050781 193.71875 1377.394531 193.847656 1377.714844 194.042969 Z M 1377.714844 194.042969 "/><path style=" stroke:none;fill-rule:nonzero;fill:#000e24;fill-opacity:1;" d="M 1396.304688 144.835938 C 1396.304688 145.210938 1396.234375 145.570312 1396.089844 145.914062 C 1395.949219 146.261719 1395.742188 146.566406 1395.480469 146.832031 C 1395.214844 147.097656 1394.910156 147.300781 1394.5625 147.445312 C 1394.21875 147.585938 1393.855469 147.660156 1393.480469 147.660156 C 1393.109375 147.660156 1392.746094 147.585938 1392.402344 147.445312 C 1392.054688 147.300781 1391.75 147.097656 1391.484375 146.832031 C 1391.222656 146.566406 1391.015625 146.261719 1390.875 145.914062 C 1390.730469 145.570312 1390.660156 145.210938 1390.660156 144.835938 C 1390.660156 144.460938 1390.730469 144.101562 1390.875 143.753906 C 1391.015625 143.410156 1391.222656 143.101562 1391.484375 142.839844 C 1391.75 142.574219 1392.054688 142.371094 1392.402344 142.226562 C 1392.746094 142.082031 1393.109375 142.011719 1393.480469 142.011719 C 1393.855469 142.011719 1394.21875 142.082031 1394.5625 142.226562 C 1394.910156 142.371094 1395.214844 142.574219 1395.480469 142.839844 C 1395.742188 143.101562 1395.949219 143.410156 1396.089844 143.753906 C 1396.234375 144.101562 1396.304688 144.460938 1396.304688 144.835938 Z M 1396.304688 144.835938 "/><path style=" stroke:none;fill-rule:nonzero;fill:#000e24;fill-opacity:1;" d="M 1396.304688 162.042969 C 1396.304688 162.414062 1396.234375 162.777344 1396.089844 163.121094 C 1395.949219 163.46875 1395.742188 163.773438 1395.480469 164.039062 C 1395.214844 164.304688 1394.910156 164.507812 1394.5625 164.648438 C 1394.21875 164.792969 1393.855469 164.863281 1393.480469 164.863281 C 1393.109375 164.863281 1392.746094 164.792969 1392.402344 164.648438 C 1392.054688 164.507812 1391.75 164.304688 1391.484375 164.039062 C 1391.222656 163.773438 1391.015625 163.46875 1390.875 163.121094 C 1390.730469 162.777344 1390.660156 162.414062 1390.660156 162.042969 C 1390.660156 161.667969 1390.730469 161.308594 1390.875 160.960938 C 1391.015625 160.613281 1391.222656 160.308594 1391.484375 160.042969 C 1391.75 159.78125 1392.054688 159.574219 1392.402344 159.433594 C 1392.746094 159.289062 1393.109375 159.21875 1393.480469 159.21875 C 1393.855469 159.21875 1394.21875 159.289062 1394.5625 159.433594 C 1394.910156 159.574219 1395.214844 159.78125 1395.480469 160.042969 C 1395.742188 160.308594 1395.949219 160.613281 1396.089844 160.960938 C 1396.234375 161.308594 1396.304688 161.667969 1396.304688 162.042969 Z M 1396.304688 162.042969 "/><path style=" stroke:none;fill-rule:nonzero;fill:#000e24;fill-opacity:1;" d="M 1396.304688 179.25 C 1396.304688 179.625 1396.234375 179.984375 1396.089844 180.328125 C 1395.949219 180.675781 1395.742188 180.980469 1395.480469 181.246094 C 1395.214844 181.511719 1394.910156 181.714844 1394.5625 181.859375 C 1394.21875 182 1393.855469 182.074219 1393.480469 182.074219 C 1393.109375 182.074219 1392.746094 182 1392.402344 181.859375 C 1392.054688 181.714844 1391.75 181.511719 1391.484375 181.246094 C 1391.222656 180.980469 1391.015625 180.675781 1390.875 180.328125 C 1390.730469 179.984375 1390.660156 179.625 1390.660156 179.25 C 1390.660156 178.875 1390.730469 178.515625 1390.875 178.167969 C 1391.015625 177.824219 1391.222656 177.515625 1391.484375 177.253906 C 1391.75 176.988281 1392.054688 176.785156 1392.402344 176.640625 C 1392.746094 176.496094 1393.109375 176.425781 1393.480469 176.425781 C 1393.855469 176.425781 1394.21875 176.496094 1394.5625 176.640625 C 1394.910156 176.785156 1395.214844 176.988281 1395.480469 177.253906 C 1395.742188 177.515625 1395.949219 177.824219 1396.089844 178.167969 C 1396.234375 178.515625 1396.304688 178.875 1396.304688 179.25 Z M 1396.304688 179.25 "/><path style=" stroke:none;fill-rule:nonzero;fill:#000e24;fill-opacity:1;" d="M 1396.304688 196.457031 C 1396.304688 196.828125 1396.234375 197.191406 1396.089844 197.535156 C 1395.949219 197.882812 1395.742188 198.1875 1395.480469 198.453125 C 1395.214844 198.71875 1394.910156 198.921875 1394.5625 199.0625 C 1394.21875 199.207031 1393.855469 199.277344 1393.480469 199.277344 C 1393.109375 199.277344 1392.746094 199.207031 1392.402344 199.0625 C 1392.054688 198.921875 1391.75 198.71875 1391.484375 198.453125 C 1391.222656 198.1875 1391.015625 197.882812 1390.875 197.535156 C 1390.730469 197.191406 1390.660156 196.828125 1390.660156 196.457031 C 1390.660156 196.082031 1390.730469 195.722656 1390.875 195.375 C 1391.015625 195.027344 1391.222656 194.722656 1391.484375 194.457031 C 1391.75 194.195312 1392.054688 193.988281 1392.402344 193.847656 C 1392.746094 193.703125 1393.109375 193.632812 1393.480469 193.632812 C 1393.855469 193.632812 1394.21875 193.703125 1394.5625 193.847656 C 1394.910156 193.988281 1395.214844 194.195312 1395.480469 194.457031 C 1395.742188 194.722656 1395.949219 195.027344 1396.089844 195.375 C 1396.234375 195.722656 1396.304688 196.082031 1396.304688 196.457031 Z M 1396.304688 196.457031 "/><path style=" stroke:none;fill-rule:nonzero;fill:#000e24;fill-opacity:1;" d="M 1413.398438 143.902344 C 1413.523438 144.253906 1413.574219 144.617188 1413.550781 144.992188 C 1413.53125 145.367188 1413.441406 145.722656 1413.277344 146.058594 C 1413.117188 146.394531 1412.894531 146.691406 1412.617188 146.941406 C 1412.335938 147.191406 1412.019531 147.375 1411.667969 147.5 C 1411.3125 147.625 1410.949219 147.675781 1410.578125 147.65625 C 1410.203125 147.632812 1409.847656 147.542969 1409.511719 147.378906 C 1409.171875 147.21875 1408.878906 146.996094 1408.628906 146.71875 C 1408.378906 146.441406 1408.191406 146.125 1408.070312 145.769531 C 1407.945312 145.417969 1407.894531 145.054688 1407.914062 144.679688 C 1407.933594 144.304688 1408.027344 143.949219 1408.1875 143.613281 C 1408.351562 143.273438 1408.570312 142.980469 1408.851562 142.730469 C 1409.128906 142.480469 1409.445312 142.296875 1409.796875 142.171875 C 1410.152344 142.046875 1410.515625 141.996094 1410.890625 142.015625 C 1411.261719 142.035156 1411.617188 142.128906 1411.957031 142.289062 C 1412.292969 142.453125 1412.585938 142.671875 1412.835938 142.953125 C 1413.085938 143.230469 1413.273438 143.546875 1413.398438 143.902344 Z M 1413.398438 143.902344 "/><path style=" stroke:none;fill-rule:nonzero;fill:#000e24;fill-opacity:1;" d="M 1412.957031 160.304688 C 1413.1875 160.601562 1413.351562 160.929688 1413.453125 161.289062 C 1413.554688 161.648438 1413.578125 162.015625 1413.535156 162.386719 C 1413.488281 162.761719 1413.375 163.109375 1413.1875 163.433594 C 1413.003906 163.761719 1412.765625 164.039062 1412.46875 164.269531 C 1412.175781 164.5 1411.847656 164.664062 1411.484375 164.765625 C 1411.125 164.863281 1410.757812 164.890625 1410.386719 164.847656 C 1410.015625 164.800781 1409.667969 164.683594 1409.339844 164.5 C 1409.015625 164.316406 1408.738281 164.074219 1408.507812 163.78125 C 1408.277344 163.484375 1408.109375 163.15625 1408.011719 162.796875 C 1407.910156 162.4375 1407.882812 162.070312 1407.929688 161.699219 C 1407.976562 161.328125 1408.089844 160.976562 1408.273438 160.652344 C 1408.460938 160.324219 1408.699219 160.046875 1408.992188 159.816406 C 1409.289062 159.585938 1409.617188 159.421875 1409.976562 159.320312 C 1410.339844 159.222656 1410.707031 159.195312 1411.078125 159.242188 C 1411.449219 159.285156 1411.796875 159.402344 1412.121094 159.585938 C 1412.449219 159.769531 1412.726562 160.011719 1412.957031 160.304688 Z M 1412.957031 160.304688 "/><path style=" stroke:none;fill-rule:nonzero;fill:#000e24;fill-opacity:1;" d="M 1413.257812 177.988281 C 1413.425781 178.324219 1413.523438 178.675781 1413.550781 179.050781 C 1413.574219 179.425781 1413.53125 179.789062 1413.410156 180.144531 C 1413.292969 180.5 1413.113281 180.820312 1412.867188 181.101562 C 1412.621094 181.382812 1412.332031 181.609375 1411.996094 181.777344 C 1411.660156 181.945312 1411.304688 182.042969 1410.933594 182.066406 C 1410.558594 182.09375 1410.195312 182.046875 1409.839844 181.929688 C 1409.484375 181.8125 1409.164062 181.628906 1408.882812 181.382812 C 1408.601562 181.140625 1408.375 180.847656 1408.207031 180.515625 C 1408.039062 180.179688 1407.941406 179.824219 1407.917969 179.453125 C 1407.890625 179.078125 1407.9375 178.714844 1408.054688 178.359375 C 1408.171875 178.003906 1408.355469 177.683594 1408.601562 177.402344 C 1408.84375 177.117188 1409.136719 176.894531 1409.46875 176.726562 C 1409.804688 176.558594 1410.160156 176.460938 1410.53125 176.433594 C 1410.90625 176.40625 1411.269531 176.453125 1411.625 176.574219 C 1411.980469 176.691406 1412.300781 176.871094 1412.582031 177.117188 C 1412.867188 177.363281 1413.089844 177.652344 1413.257812 177.988281 Z M 1413.257812 177.988281 "/><path style=" stroke:none;fill-rule:nonzero;fill:#000e24;fill-opacity:1;" d="M 1413.257812 195.195312 C 1413.425781 195.53125 1413.523438 195.882812 1413.550781 196.257812 C 1413.574219 196.632812 1413.53125 196.996094 1413.410156 197.351562 C 1413.292969 197.707031 1413.109375 198.023438 1412.867188 198.308594 C 1412.621094 198.589844 1412.332031 198.816406 1411.996094 198.984375 C 1411.660156 199.152344 1411.304688 199.246094 1410.933594 199.273438 C 1410.558594 199.300781 1410.195312 199.253906 1409.839844 199.136719 C 1409.484375 199.019531 1409.164062 198.835938 1408.882812 198.589844 C 1408.597656 198.347656 1408.375 198.054688 1408.207031 197.722656 C 1408.039062 197.386719 1407.941406 197.03125 1407.914062 196.65625 C 1407.890625 196.285156 1407.933594 195.921875 1408.054688 195.566406 C 1408.171875 195.210938 1408.355469 194.890625 1408.597656 194.609375 C 1408.84375 194.324219 1409.136719 194.101562 1409.46875 193.933594 C 1409.804688 193.765625 1410.160156 193.667969 1410.53125 193.640625 C 1410.90625 193.613281 1411.269531 193.660156 1411.625 193.777344 C 1411.980469 193.898438 1412.300781 194.078125 1412.582031 194.324219 C 1412.867188 194.570312 1413.089844 194.859375 1413.257812 195.195312 Z M 1413.257812 195.195312 "/><g mask="url(#54c24bee6b)" transform="matrix(1,0,0,1,0,0.000000000000039746)"><g clip-path="url(#38458b41df)"><g clip-rule="nonzero" clip-path="url(#234857a6b2)"><g clip-rule="nonzero" clip-path="url(#a8d82e3063)"><path style="fill:none;stroke-width:120;stroke-linecap:butt;stroke-linejoin:miter;stroke:#000e24;stroke-opacity:1;stroke-miterlimit:4;" d="M 161.999376 0.00237849 C 72.530622 0.00237849 -0.000632086 72.528424 -0.000632086 162.002387 C -0.000632086 251.471141 72.530622 324.002395 161.999376 324.002395 C 251.468131 324.002395 323.999384 251.471141 323.999384 162.002387 C 323.999384 72.528424 251.468131 0.00237849 161.999376 0.00237849 Z M 161.999376 0.00237849 " transform="matrix(0.75,0,0,0.75,-99.237807,-102.048659)"/></g></g></g><mask id="54c24bee6b"><g filter="url(#a191d287d0)"><rect x="0" width="1440" y="0" height="809.999993" style="fill:#000000;fill-opacity:0.32;stroke:none;"/></g></mask></g><g mask="url(#6b95c46468)" transform="matrix(1,0,0,1,303,507)"><g clip-path="url(#396f36560a)"><g clip-rule="nonzero" clip-path="url(#de2a6b28df)"><g clip-rule="nonzero" clip-path="url(#2256882aa3)"><path style="fill:none;stroke-width:120;stroke-linecap:butt;stroke-linejoin:miter;stroke:#000e24;stroke-opacity:1;stroke-miterlimit:4;" d="M 208.220735 -0.00204033 C 93.224919 -0.00204033 0.00197845 93.220901 0.00197845 208.216716 C 0.00197845 323.212532 93.224919 416.435473 208.220735 416.435473 C 323.216551 416.435473 416.439492 323.212532 416.439492 208.216716 C 416.439492 93.220901 323.216551 -0.00204033 208.220735 -0.00204033 Z M 208.220735 -0.00204033 " transform="matrix(0.749212,0,0,0.749212,180.994611,180.919497)"/></g></g></g><mask id="6b95c46468"><g filter="url(#a191d287d0)"><rect x="0" width="1440" y="0" height="809.999993" style="fill:#000000;fill-opacity:0.32;stroke:none;"/></g></mask></g></g></svg>